<svg xmlns="http://www.w3.org/2000/svg" xmlns:xlink="http://www.w3.org/1999/xlink" width="341" zoomAndPan="magnify" viewBox="0 0 255.75 61.499998" height="82" preserveAspectRatio="xMidYMid meet" version="1.0"><defs><g/><clipPath id="b44876fb9a"><path d="M 146 8.796875 L 249.867188 8.796875 L 249.867188 52.21875 L 146 52.21875 Z M 146 8.796875 " clip-rule="nonzero"/></clipPath><clipPath id="84d7670d2e"><path d="M 177.789062 8.796875 L 243.605469 8.796875 C 245.738281 8.796875 247.707031 9.941406 248.761719 11.796875 C 249.816406 13.648438 249.800781 15.925781 248.710938 17.761719 L 233.613281 43.253906 C 230.324219 48.8125 224.347656 52.21875 217.890625 52.21875 L 152.074219 52.21875 C 149.941406 52.21875 147.972656 51.074219 146.917969 49.21875 C 145.859375 47.367188 145.878906 45.089844 146.96875 43.253906 L 162.066406 17.761719 C 165.355469 12.203125 171.332031 8.796875 177.789062 8.796875 Z M 177.789062 8.796875 " clip-rule="nonzero"/></clipPath></defs><g clip-path="url(#b44876fb9a)"><g clip-path="url(#84d7670d2e)"><path fill="#000000" d="M 141.660156 8.796875 L 253.9375 8.796875 L 253.9375 52.21875 L 141.660156 52.21875 Z M 141.660156 8.796875 " fill-opacity="1" fill-rule="nonzero"/></g></g><g fill="#000000" fill-opacity="1"><g transform="translate(9.858268, 44.903757)"><g><path d="M 12.21875 -22.40625 C 11.550781 -22.4375 11.003906 -22.257812 10.578125 -21.875 C 10.148438 -21.5 9.9375 -20.957031 9.9375 -20.25 L 9.9375 -18.828125 L 14.40625 -18.828125 L 14.40625 -14.65625 L 9.9375 -14.65625 L 9.9375 0 L 3.6875 0 L 3.6875 -14.65625 L 1.03125 -14.65625 L 1.03125 -18.828125 L 3.6875 -18.828125 L 3.6875 -20.65625 C 3.6875 -22.78125 4.394531 -24.4375 5.8125 -25.625 C 7.226562 -26.820312 9.03125 -27.421875 11.21875 -27.421875 C 13.320312 -27.421875 15.164062 -26.957031 16.75 -26.03125 L 14.515625 -21.609375 C 13.785156 -22.140625 13.019531 -22.40625 12.21875 -22.40625 Z M 12.21875 -22.40625 "/></g></g></g><g fill="#000000" fill-opacity="1"><g transform="translate(21.887884, 44.903757)"><g><path d="M 11.15625 -19.921875 C 14.5625 -19.921875 17.125 -18.875 18.84375 -16.78125 C 20.5625 -14.6875 21.3125 -11.8125 21.09375 -8.15625 L 7.234375 -8.15625 C 7.554688 -6.976562 8.117188 -6.070312 8.921875 -5.4375 C 9.722656 -4.8125 10.707031 -4.5 11.875 -4.5 C 13.6875 -4.5 15.257812 -5.171875 16.59375 -6.515625 L 19.921875 -3.25 C 17.804688 -0.9375 14.941406 0.21875 11.328125 0.21875 C 8.140625 0.21875 5.597656 -0.691406 3.703125 -2.515625 C 1.816406 -4.347656 0.875 -6.773438 0.875 -9.796875 C 0.875 -12.847656 1.816406 -15.296875 3.703125 -17.140625 C 5.597656 -18.992188 8.082031 -19.921875 11.15625 -19.921875 Z M 7.125 -11.546875 L 15.03125 -11.546875 C 15.03125 -12.742188 14.679688 -13.707031 13.984375 -14.4375 C 13.285156 -15.164062 12.363281 -15.53125 11.21875 -15.53125 C 10.144531 -15.53125 9.242188 -15.171875 8.515625 -14.453125 C 7.785156 -13.734375 7.320312 -12.765625 7.125 -11.546875 Z M 7.125 -11.546875 "/></g></g></g><g fill="#000000" fill-opacity="1"><g transform="translate(41.815499, 44.903757)"><g><path d="M 22.375 -27.125 L 22.375 0 L 16.046875 0 L 16.046875 -2.59375 C 14.609375 -0.695312 12.632812 0.25 10.125 0.25 C 7.34375 0.25 5.109375 -0.6875 3.421875 -2.5625 C 1.742188 -4.4375 0.90625 -6.894531 0.90625 -9.9375 C 0.90625 -12.96875 1.734375 -15.394531 3.390625 -17.21875 C 5.054688 -19.050781 7.253906 -19.96875 9.984375 -19.96875 C 12.585938 -19.96875 14.609375 -19.015625 16.046875 -17.109375 L 16.046875 -27.125 Z M 8.484375 -6.0625 C 9.285156 -5.113281 10.34375 -4.640625 11.65625 -4.640625 C 12.976562 -4.640625 14.039062 -5.113281 14.84375 -6.0625 C 15.644531 -7.019531 16.046875 -8.265625 16.046875 -9.796875 C 16.046875 -11.304688 15.644531 -12.535156 14.84375 -13.484375 C 14.039062 -14.441406 12.976562 -14.921875 11.65625 -14.921875 C 10.34375 -14.921875 9.285156 -14.453125 8.484375 -13.515625 C 7.679688 -12.578125 7.265625 -11.335938 7.234375 -9.796875 C 7.265625 -8.265625 7.679688 -7.019531 8.484375 -6.0625 Z M 8.484375 -6.0625 "/></g></g></g><g fill="#000000" fill-opacity="1"><g transform="translate(64.814558, 44.903757)"><g><path d="M 11.15625 -19.921875 C 14.5625 -19.921875 17.125 -18.875 18.84375 -16.78125 C 20.5625 -14.6875 21.3125 -11.8125 21.09375 -8.15625 L 7.234375 -8.15625 C 7.554688 -6.976562 8.117188 -6.070312 8.921875 -5.4375 C 9.722656 -4.8125 10.707031 -4.5 11.875 -4.5 C 13.6875 -4.5 15.257812 -5.171875 16.59375 -6.515625 L 19.921875 -3.25 C 17.804688 -0.9375 14.941406 0.21875 11.328125 0.21875 C 8.140625 0.21875 5.597656 -0.691406 3.703125 -2.515625 C 1.816406 -4.347656 0.875 -6.773438 0.875 -9.796875 C 0.875 -12.847656 1.816406 -15.296875 3.703125 -17.140625 C 5.597656 -18.992188 8.082031 -19.921875 11.15625 -19.921875 Z M 7.125 -11.546875 L 15.03125 -11.546875 C 15.03125 -12.742188 14.679688 -13.707031 13.984375 -14.4375 C 13.285156 -15.164062 12.363281 -15.53125 11.21875 -15.53125 C 10.144531 -15.53125 9.242188 -15.171875 8.515625 -14.453125 C 7.785156 -13.734375 7.320312 -12.765625 7.125 -11.546875 Z M 7.125 -11.546875 "/></g></g></g><g fill="#000000" fill-opacity="1"><g transform="translate(84.742172, 44.903757)"><g><path d="M 8.84375 -19.703125 L 8.84375 -16.375 C 10.238281 -18.738281 12.375 -19.945312 15.25 -20 L 15.25 -14.296875 C 13.445312 -14.460938 11.972656 -14.160156 10.828125 -13.390625 C 9.679688 -12.628906 9.019531 -11.539062 8.84375 -10.125 L 8.84375 0 L 2.515625 0 L 2.515625 -19.703125 Z M 8.84375 -19.703125 "/></g></g></g><g fill="#000000" fill-opacity="1"><g transform="translate(98.270941, 44.903757)"><g><path d="M 3.296875 -27.765625 C 3.921875 -28.390625 4.722656 -28.703125 5.703125 -28.703125 C 6.679688 -28.703125 7.476562 -28.390625 8.09375 -27.765625 C 8.71875 -27.148438 9.03125 -26.351562 9.03125 -25.375 C 9.03125 -24.394531 8.71875 -23.585938 8.09375 -22.953125 C 7.476562 -22.328125 6.679688 -22.015625 5.703125 -22.015625 C 4.722656 -22.015625 3.921875 -22.328125 3.296875 -22.953125 C 2.679688 -23.585938 2.375 -24.394531 2.375 -25.375 C 2.375 -26.351562 2.679688 -27.148438 3.296875 -27.765625 Z M 8.8125 0 L 2.515625 0 L 2.515625 -19.703125 L 8.8125 -19.703125 Z M 8.8125 0 "/></g></g></g><g fill="#000000" fill-opacity="1"><g transform="translate(107.5582, 44.903757)"><g><path d="M 11.109375 -19.921875 C 13.066406 -19.921875 14.804688 -19.535156 16.328125 -18.765625 C 17.847656 -18.003906 19.035156 -16.914062 19.890625 -15.5 L 15.359375 -12.765625 C 14.378906 -14.128906 13.050781 -14.8125 11.375 -14.8125 C 10.15625 -14.8125 9.160156 -14.351562 8.390625 -13.4375 C 7.617188 -12.519531 7.234375 -11.316406 7.234375 -9.828125 C 7.234375 -8.316406 7.609375 -7.101562 8.359375 -6.1875 C 9.117188 -5.28125 10.125 -4.828125 11.375 -4.828125 C 13.226562 -4.828125 14.566406 -5.570312 15.390625 -7.0625 L 20 -4.34375 C 19.195312 -2.882812 18.019531 -1.757812 16.46875 -0.96875 C 14.925781 -0.175781 13.117188 0.21875 11.046875 0.21875 C 7.992188 0.21875 5.535156 -0.695312 3.671875 -2.53125 C 1.804688 -4.375 0.875 -6.796875 0.875 -9.796875 C 0.875 -12.816406 1.816406 -15.257812 3.703125 -17.125 C 5.597656 -18.988281 8.066406 -19.921875 11.109375 -19.921875 Z M 11.109375 -19.921875 "/></g></g></g><g fill="#000000" fill-opacity="1"><g transform="translate(126.02322, 44.903757)"><g><path d="M 11.65625 -19.921875 C 14.875 -19.921875 17.46875 -19 19.4375 -17.15625 C 21.414062 -15.320312 22.40625 -12.894531 22.40625 -9.875 C 22.40625 -6.851562 21.414062 -4.414062 19.4375 -2.5625 C 17.46875 -0.707031 14.875 0.21875 11.65625 0.21875 C 8.414062 0.21875 5.804688 -0.707031 3.828125 -2.5625 C 1.859375 -4.414062 0.875 -6.851562 0.875 -9.875 C 0.875 -12.894531 1.859375 -15.320312 3.828125 -17.15625 C 5.804688 -19 8.414062 -19.921875 11.65625 -19.921875 Z M 11.65625 -14.921875 C 10.34375 -14.921875 9.273438 -14.441406 8.453125 -13.484375 C 7.640625 -12.535156 7.234375 -11.304688 7.234375 -9.796875 C 7.234375 -8.265625 7.640625 -7.03125 8.453125 -6.09375 C 9.273438 -5.15625 10.34375 -4.6875 11.65625 -4.6875 C 12.945312 -4.6875 14 -5.15625 14.8125 -6.09375 C 15.632812 -7.03125 16.046875 -8.265625 16.046875 -9.796875 C 16.046875 -11.304688 15.632812 -12.535156 14.8125 -13.484375 C 14 -14.441406 12.945312 -14.921875 11.65625 -14.921875 Z M 11.65625 -14.921875 "/></g></g></g><g fill="#ffffff" fill-opacity="1"><g transform="translate(162.575478, 44.9096)"><g><path d="M 22.375 -27.125 L 22.375 0 L 16.046875 0 L 16.046875 -2.59375 C 14.609375 -0.695312 12.632812 0.25 10.125 0.25 C 7.34375 0.25 5.109375 -0.6875 3.421875 -2.5625 C 1.742188 -4.4375 0.90625 -6.894531 0.90625 -9.9375 C 0.90625 -12.96875 1.734375 -15.394531 3.390625 -17.21875 C 5.054688 -19.050781 7.253906 -19.96875 9.984375 -19.96875 C 12.585938 -19.96875 14.609375 -19.015625 16.046875 -17.109375 L 16.046875 -27.125 Z M 8.484375 -6.0625 C 9.285156 -5.113281 10.34375 -4.640625 11.65625 -4.640625 C 12.976562 -4.640625 14.039062 -5.113281 14.84375 -6.0625 C 15.644531 -7.019531 16.046875 -8.265625 16.046875 -9.796875 C 16.046875 -11.304688 15.644531 -12.535156 14.84375 -13.484375 C 14.039062 -14.441406 12.976562 -14.921875 11.65625 -14.921875 C 10.34375 -14.921875 9.285156 -14.453125 8.484375 -13.515625 C 7.679688 -12.578125 7.265625 -11.335938 7.234375 -9.796875 C 7.265625 -8.265625 7.679688 -7.019531 8.484375 -6.0625 Z M 8.484375 -6.0625 "/></g></g></g><g fill="#ffffff" fill-opacity="1"><g transform="translate(185.574536, 44.9096)"><g><path d="M 11.15625 -19.921875 C 14.5625 -19.921875 17.125 -18.875 18.84375 -16.78125 C 20.5625 -14.6875 21.3125 -11.8125 21.09375 -8.15625 L 7.234375 -8.15625 C 7.554688 -6.976562 8.117188 -6.070312 8.921875 -5.4375 C 9.722656 -4.8125 10.707031 -4.5 11.875 -4.5 C 13.6875 -4.5 15.257812 -5.171875 16.59375 -6.515625 L 19.921875 -3.25 C 17.804688 -0.9375 14.941406 0.21875 11.328125 0.21875 C 8.140625 0.21875 5.597656 -0.691406 3.703125 -2.515625 C 1.816406 -4.347656 0.875 -6.773438 0.875 -9.796875 C 0.875 -12.847656 1.816406 -15.296875 3.703125 -17.140625 C 5.597656 -18.992188 8.082031 -19.921875 11.15625 -19.921875 Z M 7.125 -11.546875 L 15.03125 -11.546875 C 15.03125 -12.742188 14.679688 -13.707031 13.984375 -14.4375 C 13.285156 -15.164062 12.363281 -15.53125 11.21875 -15.53125 C 10.144531 -15.53125 9.242188 -15.171875 8.515625 -14.453125 C 7.785156 -13.734375 7.320312 -12.765625 7.125 -11.546875 Z M 7.125 -11.546875 "/></g></g></g><g fill="#ffffff" fill-opacity="1"><g transform="translate(205.502153, 44.9096)"><g><path d="M 13.703125 0 L 7.234375 0 L -0.1875 -19.703125 L 6.328125 -19.703125 L 10.5625 -5.78125 L 14.84375 -19.703125 L 21.140625 -19.703125 Z M 13.703125 0 "/></g></g></g></svg>